<svg width="17" height="19" viewBox="0 0 17 19" fill="none" xmlns="http://www.w3.org/2000/svg">
<path d="M16.2311 10.3296L14.9846 8.86775C14.8771 8.74177 14.7447 8.63941 14.5957 8.5671C14.4467 8.49479 14.2843 8.45411 14.1188 8.44761C13.9533 8.4411 13.7882 8.46892 13.634 8.52931C13.4798 8.58969 13.3397 8.68135 13.2227 8.7985L11.5376 10.3373C11.5009 10.3654 11.4579 10.3842 11.4123 10.3919C11.3667 10.3997 11.3199 10.3962 11.276 10.3818C11.2321 10.3674 11.1923 10.3425 11.1601 10.3093C11.1279 10.2761 11.1044 10.2355 11.0914 10.1911C11.0914 7.99061 11.2914 4.31281 11.0221 1.38903C11.0021 1.065 10.8644 0.759467 10.6348 0.52991C10.4052 0.300352 10.0997 0.162602 9.77568 0.142578H7.35972C7.03569 0.162602 6.73015 0.300352 6.5006 0.52991C6.27104 0.759467 6.13329 1.065 6.11327 1.38903C5.82859 4.53594 6.19021 8.1368 6.19021 10.4066C6.19077 10.4589 6.17465 10.5101 6.14416 10.5526C6.11367 10.5952 6.07041 10.6269 6.02066 10.6432C5.97091 10.6595 5.91726 10.6595 5.8675 10.6433C5.81774 10.627 5.77446 10.5953 5.74394 10.5528L4.64368 9.23707C4.53373 9.10362 4.3969 8.99482 4.24211 8.91778C4.08731 8.84073 3.91801 8.79717 3.74525 8.78991C3.5725 8.78265 3.40014 8.81186 3.23942 8.87565C3.07871 8.93944 2.93323 9.03637 2.81247 9.16012L1.19671 10.7759C0.970448 11.0134 0.844238 11.3289 0.844238 11.6569C0.844238 11.9849 0.970448 12.3004 1.19671 12.5379C2.92403 14.5483 4.81561 16.4116 6.8519 18.1084C7.35574 18.5382 7.99955 18.7684 8.66163 18.7556C9.32371 18.7429 9.95817 18.488 10.4451 18.0392C12.5073 16.1639 14.4427 14.1539 16.2388 12.0223C16.4354 11.7837 16.5424 11.4838 16.541 11.1746C16.5395 10.8654 16.4299 10.5664 16.2311 10.3296Z" fill="#FFB949"/>
</svg>
