<svg width="1024" height="1024" viewBox="0 0 1024 1024" fill="none" xmlns="http://www.w3.org/2000/svg">
<path fill-rule="evenodd" clip-rule="evenodd" d="M512 79.9999C273.413 79.9999 80 273.412 80 512C80 750.586 273.413 944 512 944C750.587 944 944 750.586 944 512C944 273.412 750.587 79.9999 512 79.9999Z" fill="#F98080"/>
<path fill-rule="evenodd" clip-rule="evenodd" d="M653.826 642.916L642.916 653.825C633.878 662.863 619.225 662.863 610.187 653.825L370.175 413.813C361.137 404.776 361.137 390.123 370.175 381.084L381.084 370.174C390.122 361.137 404.776 361.137 413.813 370.174L653.826 610.187C662.864 619.225 662.864 633.878 653.826 642.916Z" fill="white"/>
<path fill-rule="evenodd" clip-rule="evenodd" d="M370.174 642.916L381.084 653.825C390.121 662.863 404.775 662.863 413.813 653.825L653.825 413.813C662.863 404.776 662.863 390.123 653.825 381.084L642.916 370.174C633.877 361.137 619.224 361.137 610.187 370.174L370.174 610.187C361.136 619.225 361.136 633.878 370.174 642.916Z" fill="white"/>
</svg>
