<svg width="1024" height="1024" viewBox="0 0 1024 1024" fill="none" xmlns="http://www.w3.org/2000/svg">
<path fill-rule="evenodd" clip-rule="evenodd" d="M80 512C80 750.586 273.413 944 512 944C750.586 944 944 750.586 944 512C944 273.413 750.586 80 512 80C273.413 80 80 273.413 80 512Z" fill="#909090"/>
<path fill-rule="evenodd" clip-rule="evenodd" d="M702.329 612.359C702.329 612.359 663.777 671.85 602.772 703.771C541.77 735.693 466.614 726.505 417.325 695.551C368.032 664.594 351.441 638.476 351.441 638.476L308.982 662.659C308.982 662.659 300.198 667.013 300.198 656.855V504.983C300.198 504.983 300.198 491.441 310.445 496.277C319.068 500.346 412.312 553.367 441.695 570.095C457.83 577.292 443.655 583.137 443.655 583.137L402.684 606.555C402.684 606.555 426.054 635.822 460.259 651.323C496.871 670.397 531.147 672.66 573.136 656.808C599.71 646.778 630.858 621.555 653.894 584.336C655.042 582.48 657.517 581.972 659.322 583.197L702.329 612.359ZM321.672 411.642C321.672 411.642 360.225 352.15 421.227 320.227C482.23 288.307 557.386 297.496 606.676 328.45C655.965 359.405 672.56 385.523 672.56 385.523L715.016 361.34C715.016 361.34 723.803 356.988 723.803 367.145V519.017C723.803 519.017 723.803 532.56 713.552 527.722C704.93 523.655 611.687 470.633 582.305 453.905C566.17 446.709 580.346 440.861 580.346 440.861L621.316 417.445C621.316 417.445 597.947 388.178 563.742 372.677C527.129 353.601 492.851 351.339 450.864 367.191C423.485 377.525 391.249 403.989 368.031 443.079L321.672 411.642Z" fill="white"/>
</svg>
