<svg width="1024" height="1024" viewBox="0 0 1024 1024" fill="none" xmlns="http://www.w3.org/2000/svg">
<path fill-rule="evenodd" clip-rule="evenodd" d="M512 79.9999C273.413 79.9999 80 273.412 80 512C80 750.586 273.413 944 512 944C750.587 944 944 750.586 944 512C944 273.412 750.587 79.9999 512 79.9999Z" fill="#31C48D"/>
<path fill-rule="evenodd" clip-rule="evenodd" d="M442.391 658.747L415.117 631.474L679.41 366.217C688.447 357.179 703.1 357.179 712.138 366.217L723.048 377.126C732.086 386.164 732.086 400.817 723.048 409.856L475.12 658.747C466.083 667.786 451.429 667.786 442.391 658.747Z" fill="white"/>
<path fill-rule="evenodd" clip-rule="evenodd" d="M502.344 631.473L475.07 658.747C466.032 667.785 451.379 667.785 442.341 658.747L333.738 550.144C324.699 541.106 324.699 526.453 333.738 517.415L344.647 506.506C353.685 497.467 368.338 497.467 377.376 506.506L502.344 631.473Z" fill="white"/>
</svg>
